<svg preserveAspectRatio="none" overflow="visible" style="display: block;" width="28" height="28" viewBox="0 0 28 28" fill="none" xmlns="http://www.w3.org/2000/svg">
<g id="fluent:pen-28-regular">
<path id="Vector" d="M21.232 6.76836C20.9887 6.52478 20.6997 6.33154 20.3817 6.1997C20.0636 6.06786 19.7227 6 19.3784 6C19.0341 6 18.6932 6.06786 18.3752 6.1997C18.0571 6.33154 17.7682 6.52478 17.5249 6.76836L7.66828 16.6254C7.37497 16.9187 7.16165 17.2827 7.04966 17.6827L6.0184 21.3657C5.99457 21.451 5.99387 21.5412 6.01637 21.6269C6.03887 21.7127 6.08376 21.7909 6.14644 21.8536C6.20911 21.9162 6.28733 21.9611 6.37307 21.9836C6.4588 22.0061 6.54898 22.0054 6.63436 21.9816L10.3168 20.9504C10.717 20.8392 11.0815 20.626 11.3747 20.3318L19.4988 12.2085C19.7036 12.4299 19.8147 12.7219 19.8089 13.0234C19.803 13.3249 19.6807 13.6125 19.4674 13.8257L18.1455 15.1476C18.0964 15.1933 18.057 15.2485 18.0297 15.3099C18.0023 15.3712 17.9877 15.4374 17.9865 15.5045C17.9853 15.5717 17.9976 15.6383 18.0228 15.7006C18.0479 15.7628 18.0854 15.8194 18.1328 15.8669C18.1803 15.9143 18.2369 15.9518 18.2991 15.9769C18.3614 16.0021 18.428 16.0144 18.4952 16.0132C18.5623 16.012 18.6285 15.9973 18.6898 15.97C18.7512 15.9427 18.8064 15.9033 18.8521 15.8542L20.174 14.533C20.5748 14.1322 20.8026 13.5903 20.8084 13.0235C20.8143 12.4567 20.5978 11.9102 20.2054 11.5012L21.232 10.4747C21.4754 10.2314 21.6686 9.94249 21.8004 9.62452C21.9322 9.30654 22 8.96572 22 8.62152C22 8.27731 21.9322 7.93649 21.8004 7.61851C21.6686 7.30054 21.4754 7.01165 21.232 6.76836ZM18.2322 7.47496C18.5363 7.17096 18.9487 7.00021 19.3787 7.00027C19.8087 7.00033 20.221 7.1712 20.525 7.47529C20.829 7.77938 20.9998 8.19177 20.9997 8.62175C20.9996 9.05173 20.8288 9.46408 20.5247 9.76808L10.6681 19.6252C10.4965 19.7979 10.2828 19.9229 10.0481 19.9878L7.22098 20.779L8.01226 17.9526C8.07801 17.7183 8.20289 17.5049 8.3749 17.3327L18.2322 7.47496Z" fill="black"/>
</g>
</svg>
